<svg xmlns="http://www.w3.org/2000/svg" viewBox="0 0 24 16">
  <rect width="24" height="16" fill="#b22234" />
  <g fill="#ffffff">
    <rect y="2" width="24" height="1" />
    <rect y="4" width="24" height="1" />
    <rect y="6" width="24" height="1" />
    <rect y="8" width="24" height="1" />
    <rect y="10" width="24" height="1" />
    <rect y="12" width="24" height="1" />
    <rect y="14" width="24" height="1" />
  </g>
  <rect width="10" height="7" fill="#3c3b6e" />
  <g fill="#ffffff" transform="translate(1 1)">
    <circle cx="0" cy="0" r="0.4" />
    <circle cx="2" cy="0" r="0.4" />
    <circle cx="4" cy="0" r="0.4" />
    <circle cx="6" cy="0" r="0.4" />
    <circle cx="8" cy="0" r="0.4" />
    <circle cx="1" cy="1" r="0.4" />
    <circle cx="3" cy="1" r="0.4" />
    <circle cx="5" cy="1" r="0.4" />
    <circle cx="7" cy="1" r="0.4" />
    <circle cx="9" cy="1" r="0.4" />
    <circle cx="0" cy="2" r="0.4" />
    <circle cx="2" cy="2" r="0.4" />
    <circle cx="4" cy="2" r="0.4" />
    <circle cx="6" cy="2" r="0.4" />
    <circle cx="8" cy="2" r="0.4" />
    <circle cx="1" cy="3" r="0.4" />
    <circle cx="3" cy="3" r="0.4" />
    <circle cx="5" cy="3" r="0.4" />
    <circle cx="7" cy="3" r="0.4" />
    <circle cx="9" cy="3" r="0.4" />
  </g>
</svg>
